REM DIRINDEX 1\2,1\3,1\4,1\5
REM DIRNAME folder01,folder02,folder03,folder04,folder05
TITLE ""
FILE "Round-13-316-317.mp3" MP3
  TRACK 01 AUDIO
    TITLE "0:"
    INDEX 01 00:00:00
  TRACK 02 AUDIO
    TITLE "2:cjc093_3513"
    INDEX 01 00:00:01
  TRACK 03 AUDIO
    TITLE "0:"
    INDEX 01 00:01:11
  TRACK 04 AUDIO
    TITLE "3:cjc093_3514"
    INDEX 01 00:01:64
  TRACK 05 AUDIO
    TITLE "0:"
    INDEX 01 00:04:23
  TRACK 06 AUDIO
    TITLE "4:cjc093_3515"
    INDEX 01 00:04:54
  TRACK 07 AUDIO
    TITLE "0:"
    INDEX 01 00:07:74
  TRACK 08 AUDIO
    TITLE "2:cjc093_3516"
    INDEX 01 00:09:12
  TRACK 09 AUDIO
    TITLE "0:"
    INDEX 01 00:10:04
  TRACK 10 AUDIO
    TITLE "3:cjc093_3517"
    INDEX 01 00:10:53
  TRACK 11 AUDIO
    TITLE "0:"
    INDEX 01 00:12:67
  TRACK 12 AUDIO
    TITLE "4:cjc093_3518"
    INDEX 01 00:13:22
  TRACK 13 AUDIO
    TITLE "0:"
    INDEX 01 00:17:02
  TRACK 14 AUDIO
    TITLE "2:cjc093_3519"
    INDEX 01 00:18:15
  TRACK 15 AUDIO
    TITLE "0:"
    INDEX 01 00:19:26
  TRACK 16 AUDIO
    TITLE "3:cjc093_3520"
    INDEX 01 00:19:60
  TRACK 17 AUDIO
    TITLE "0:"
    INDEX 01 00:22:01
  TRACK 18 AUDIO
    TITLE "4:cjc093_3521"
    INDEX 01 00:22:05
  TRACK 19 AUDIO
    TITLE "0:"
    INDEX 01 00:25:35
  TRACK 20 AUDIO
    TITLE "2:cjc093_3522"
    INDEX 01 00:26:38
  TRACK 21 AUDIO
    TITLE "0:"
    INDEX 01 00:27:34
  TRACK 22 AUDIO
    TITLE "3:cjc093_3523"
    INDEX 01 00:27:61
  TRACK 23 AUDIO
    TITLE "0:"
    INDEX 01 00:29:05
  TRACK 24 AUDIO
    TITLE "4:cjc093_3524"
    INDEX 01 00:29:46
  TRACK 25 AUDIO
    TITLE "0:"
    INDEX 01 00:33:19
  TRACK 26 AUDIO
    TITLE "2:cjc093_3525"
    INDEX 01 00:34:38
  TRACK 27 AUDIO
    TITLE "0:"
    INDEX 01 00:35:43
  TRACK 28 AUDIO
    TITLE "3:cjc093_3526"
    INDEX 01 00:36:01
  TRACK 29 AUDIO
    TITLE "0:"
    INDEX 01 00:37:22
  TRACK 30 AUDIO
    TITLE "4:cjc093_3527"
    INDEX 01 00:37:56
  TRACK 31 AUDIO
    TITLE "0:"
    INDEX 01 00:40:19
  TRACK 32 AUDIO
    TITLE "2:cjc093_3528"
    INDEX 01 00:41:36
  TRACK 33 AUDIO
    TITLE "0:"
    INDEX 01 00:42:43
  TRACK 34 AUDIO
    TITLE "3:cjc093_3529"
    INDEX 01 00:43:05
  TRACK 35 AUDIO
    TITLE "0:"
    INDEX 01 00:45:43
  TRACK 36 AUDIO
    TITLE "4:cjc093_3530"
    INDEX 01 00:45:71
  TRACK 37 AUDIO
    TITLE "0:"
    INDEX 01 00:49:10
  TRACK 38 AUDIO
    TITLE "2:cjc093_3531"
    INDEX 01 00:50:21
  TRACK 39 AUDIO
    TITLE "0:"
    INDEX 01 00:51:22
  TRACK 40 AUDIO
    TITLE "3:cjc093_3532"
    INDEX 01 00:51:63
  TRACK 41 AUDIO
    TITLE "0:"
    INDEX 01 00:54:19
  TRACK 42 AUDIO
    TITLE "4:cjc093_3533"
    INDEX 01 00:54:42
  TRACK 43 AUDIO
    TITLE "0:"
    INDEX 01 00:57:68
  TRACK 44 AUDIO
    TITLE "2:cjc093_3534"
    INDEX 01 00:59:06
  TRACK 45 AUDIO
    TITLE "0:"
    INDEX 01 01:00:10
  TRACK 46 AUDIO
    TITLE "3:cjc093_3535"
    INDEX 01 01:00:41
  TRACK 47 AUDIO
    TITLE "0:"
    INDEX 01 01:01:62
  TRACK 48 AUDIO
    TITLE "4:cjc093_3536"
    INDEX 01 01:02:52
  TRACK 49 AUDIO
    TITLE "0:"
    INDEX 01 01:06:14
  TRACK 50 AUDIO
    TITLE "2:cjc093_3537"
    INDEX 01 01:07:33
  TRACK 51 AUDIO
    TITLE "0:"
    INDEX 01 01:08:46
  TRACK 52 AUDIO
    TITLE "3:cjc093_3538"
    INDEX 01 01:09:01
  TRACK 53 AUDIO
    TITLE "0:"
    INDEX 01 01:10:16
  TRACK 54 AUDIO
    TITLE "4:cjc093_3539"
    INDEX 01 01:11:03
  TRACK 55 AUDIO
    TITLE "0:"
    INDEX 01 01:15:13
  TRACK 56 AUDIO
    TITLE "2:cjc093_3540"
    INDEX 01 01:16:34
  TRACK 57 AUDIO
    TITLE "0:"
    INDEX 01 01:17:47
  TRACK 58 AUDIO
    TITLE "3:cjc093_3541"
    INDEX 01 01:18:17
  TRACK 59 AUDIO
    TITLE "0:"
    INDEX 01 01:20:65
  TRACK 60 AUDIO
    TITLE "4:cjc093_3542"
    INDEX 01 01:21:08
  TRACK 61 AUDIO
    TITLE "0:"
    INDEX 01 01:24:37
